<svg width="796" height="162" viewBox="0 0 796 162" fill="none" xmlns="http://www.w3.org/2000/svg">
<path d="M756.263 20.16C752.903 20.16 750.343 20.56 748.583 21.36C746.903 22.08 745.663 23.44 744.863 25.44C744.063 27.36 743.423 30.28 742.943 34.2C742.943 34.36 742.703 34.44 742.223 34.44C741.823 34.44 741.623 34.36 741.623 34.2C741.863 32.44 742.103 29.56 742.343 25.56C742.663 21.48 742.823 18.36 742.823 16.2C742.823 15.8 743.063 15.6 743.543 15.6C744.023 15.6 744.263 15.8 744.263 16.2C744.263 17.24 744.863 17.92 746.063 18.24C747.263 18.48 748.743 18.6 750.503 18.6C757.543 18.76 763.583 18.84 768.623 18.84L779.063 18.72C780.503 18.64 782.383 18.6 784.703 18.6C787.583 18.6 789.663 18.44 790.943 18.12C792.303 17.72 793.183 16.92 793.583 15.72C793.743 15.48 794.023 15.36 794.423 15.36C794.823 15.36 795.023 15.48 795.023 15.72C794.543 24.36 794.303 30.52 794.303 34.2C794.303 34.36 794.063 34.44 793.583 34.44C793.183 34.44 792.983 34.36 792.983 34.2C792.983 30.2 792.663 27.24 792.023 25.32C791.463 23.4 790.343 22.08 788.663 21.36C787.063 20.56 784.543 20.16 781.103 20.16C778.463 20.16 776.463 20.4 775.103 20.88C773.743 21.36 772.783 22.2 772.223 23.4C771.743 24.52 771.503 26.24 771.503 28.56V65.28C771.503 67.76 771.743 69.56 772.223 70.68C772.703 71.8 773.663 72.56 775.103 72.96C776.623 73.36 778.983 73.56 782.183 73.56C782.343 73.56 782.423 73.8 782.423 74.28C782.423 74.76 782.343 75 782.183 75C779.703 75 777.783 74.96 776.423 74.88L768.263 74.76L760.463 74.88C759.023 74.96 757.023 75 754.463 75C754.303 75 754.223 74.76 754.223 74.28C754.223 73.8 754.303 73.56 754.463 73.56C757.583 73.56 759.863 73.36 761.303 72.96C762.823 72.56 763.863 71.8 764.423 70.68C764.983 69.48 765.263 67.68 765.263 65.28V28.32C765.263 25.92 765.063 24.16 764.663 23.04C764.263 21.92 763.423 21.16 762.143 20.76C760.943 20.36 758.983 20.16 756.263 20.16Z" fill="white"/>
<path d="M688.972 28.8C688.972 31.28 689.572 33.44 690.772 35.28C692.052 37.04 693.612 38.52 695.452 39.72C697.292 40.92 699.772 42.36 702.892 44.04C706.092 45.64 708.652 47.12 710.572 48.48C712.492 49.84 714.132 51.52 715.492 53.52C716.852 55.44 717.532 57.8 717.532 60.6C717.532 65.08 715.732 68.84 712.132 71.88C708.612 74.92 703.812 76.44 697.732 76.44C692.692 76.44 688.172 75.08 684.172 72.36C683.772 72.12 683.492 71.84 683.332 71.52C683.252 71.2 683.172 70.72 683.092 70.08L681.652 58.68C681.572 58.36 681.772 58.16 682.252 58.08C682.732 58 683.012 58.12 683.092 58.44C683.972 63.08 686.052 66.96 689.332 70.08C692.612 73.2 696.292 74.76 700.372 74.76C703.252 74.76 705.772 73.92 707.932 72.24C710.092 70.56 711.172 67.92 711.172 64.32C711.172 61.68 710.532 59.4 709.252 57.48C707.972 55.56 706.412 53.96 704.572 52.68C702.732 51.32 700.292 49.84 697.252 48.24C694.052 46.48 691.532 44.96 689.692 43.68C687.852 42.32 686.292 40.68 685.012 38.76C683.732 36.84 683.092 34.52 683.092 31.8C683.092 27.24 684.772 23.72 688.132 21.24C691.492 18.68 695.612 17.4 700.492 17.4C704.092 17.4 707.852 18.32 711.772 20.16C712.492 20.56 712.932 20.88 713.092 21.12C713.332 21.28 713.492 21.6 713.572 22.08L714.532 32.28C714.532 32.6 714.292 32.8 713.812 32.88C713.412 32.96 713.172 32.84 713.092 32.52C712.532 29 710.852 25.88 708.052 23.16C705.252 20.36 702.012 18.96 698.332 18.96C695.372 18.96 693.052 19.88 691.372 21.72C689.772 23.56 688.972 25.92 688.972 28.8Z" fill="white"/>
<path d="M646.362 30C646.362 27.36 646.082 25.36 645.522 24C645.042 22.64 644.162 21.68 642.882 21.12C641.602 20.56 639.722 20.28 637.242 20.28C637.002 20.28 636.882 20.04 636.882 19.56C636.882 19.08 637.002 18.84 637.242 18.84L641.802 18.96C644.202 19.12 646.082 19.2 647.442 19.2C648.562 19.2 650.242 19.12 652.482 18.96L656.802 18.84C656.962 18.84 657.042 19.08 657.042 19.56C657.042 20.04 656.962 20.28 656.802 20.28C654.562 20.28 652.882 20.56 651.762 21.12C650.642 21.68 649.842 22.64 649.362 24C648.962 25.36 648.762 27.36 648.762 30V52.92C648.762 60.36 646.642 66.16 642.402 70.32C638.242 74.48 632.642 76.56 625.602 76.56C621.122 76.56 617.042 75.68 613.362 73.92C609.762 72.08 606.882 69.48 604.722 66.12C602.642 62.76 601.602 58.76 601.602 54.12V28.56C601.602 26.16 601.362 24.4 600.882 23.28C600.402 22.16 599.522 21.4 598.242 21C597.042 20.52 595.082 20.28 592.362 20.28C592.122 20.28 592.002 20.04 592.002 19.56C592.002 19.08 592.122 18.84 592.362 18.84L597.642 18.96C600.522 19.12 602.762 19.2 604.362 19.2C606.362 19.2 608.802 19.12 611.682 18.96L616.722 18.84C616.962 18.84 617.082 19.08 617.082 19.56C617.082 20.04 616.962 20.28 616.722 20.28C614.082 20.28 612.122 20.52 610.842 21C609.562 21.48 608.682 22.32 608.202 23.52C607.722 24.64 607.482 26.4 607.482 28.8V51C607.482 58.52 609.442 64.08 613.362 67.68C617.282 71.28 622.242 73.08 628.242 73.08C633.922 73.08 638.362 71.4 641.562 68.04C644.762 64.6 646.362 59.64 646.362 53.16V30Z" fill="white"/>
<path d="M536.812 64.8C536.812 67.12 537.012 68.88 537.412 70.08C537.892 71.2 538.772 72 540.052 72.48C541.332 72.96 543.252 73.2 545.812 73.2H555.412C563.252 73.2 567.852 68.4 569.212 58.8C569.212 58.64 569.372 58.56 569.692 58.56C569.932 58.56 570.132 58.6 570.292 58.68C570.532 58.76 570.652 58.88 570.652 59.04C570.092 62.48 569.812 67.2 569.812 73.2C569.812 73.84 569.652 74.32 569.332 74.64C569.092 74.88 568.652 75 568.012 75H521.332C521.172 75 521.092 74.76 521.092 74.28C521.092 73.8 521.172 73.56 521.332 73.56C524.052 73.56 526.052 73.36 527.332 72.96C528.612 72.56 529.452 71.8 529.852 70.68C530.332 69.48 530.572 67.68 530.572 65.28V28.56C530.572 26.16 530.332 24.4 529.852 23.28C529.452 22.16 528.612 21.4 527.332 21C526.052 20.52 524.052 20.28 521.332 20.28C521.172 20.28 521.092 20.04 521.092 19.56C521.092 19.08 521.172 18.84 521.332 18.84L526.612 18.96C529.492 19.12 531.812 19.2 533.572 19.2C535.572 19.2 538.012 19.12 540.892 18.96L545.932 18.84C546.092 18.84 546.172 19.08 546.172 19.56C546.172 20.04 546.092 20.28 545.932 20.28C543.212 20.28 541.212 20.52 539.932 21C538.732 21.4 537.892 22.2 537.412 23.4C537.012 24.52 536.812 26.28 536.812 28.68V64.8Z" fill="white"/>
<path d="M465.62 73.56C465.86 73.56 465.98 73.8 465.98 74.28C465.98 74.76 465.86 75 465.62 75C463.46 75 461.78 74.96 460.58 74.88L453.26 74.76L446.3 74.88C445.02 74.96 443.22 75 440.9 75C440.74 75 440.66 74.76 440.66 74.28C440.66 73.8 440.74 73.56 440.9 73.56C443.7 73.56 445.74 73.36 447.02 72.96C448.3 72.56 449.18 71.8 449.66 70.68C450.14 69.48 450.38 67.68 450.38 65.28V28.56C450.38 26.16 450.14 24.4 449.66 23.28C449.18 22.16 448.3 21.4 447.02 21C445.74 20.52 443.74 20.28 441.02 20.28C440.86 20.28 440.78 20.04 440.78 19.56C440.78 19.08 440.86 18.84 441.02 18.84L446.42 18.96C449.3 19.12 451.58 19.2 453.26 19.2C454.78 19.2 456.14 19.16 457.34 19.08C458.54 19 459.54 18.92 460.34 18.84C462.9 18.6 465.22 18.48 467.3 18.48C472.18 18.48 475.9 19.48 478.46 21.48C481.1 23.48 482.42 26.36 482.42 30.12C482.42 33.4 481.5 36.44 479.66 39.24C477.82 42.04 475.3 44.28 472.1 45.96C468.98 47.56 465.5 48.36 461.66 48.36C459.1 48.36 456.9 48.2 455.06 47.88L454.94 45.48C456.94 46.04 459.46 46.32 462.5 46.32C467.54 46.32 471.06 45.24 473.06 43.08C475.06 40.84 476.06 37.6 476.06 33.36C476.06 24.48 472.06 20.04 464.06 20.04C460.86 20.04 458.78 20.72 457.82 22.08C456.86 23.44 456.38 25.68 456.38 28.8V65.28C456.38 67.76 456.58 69.56 456.98 70.68C457.46 71.8 458.3 72.56 459.5 72.96C460.78 73.36 462.82 73.56 465.62 73.56ZM501.02 73.56C501.18 73.56 501.26 73.8 501.26 74.28C501.26 74.76 501.18 75 501.02 75H488.42C486.9 75 484.18 72.52 480.26 67.56C476.34 62.6 471.7 55.8 466.34 47.16L471.86 44.64C476.58 52.32 480.5 58.2 483.62 62.28C486.74 66.28 489.62 69.16 492.26 70.92C494.98 72.68 497.9 73.56 501.02 73.56Z" fill="white"/>
<path d="M368.436 75C368.276 75 368.196 74.76 368.196 74.28C368.196 73.8 368.276 73.56 368.436 73.56C371.156 73.56 373.156 73.36 374.436 72.96C375.716 72.56 376.556 71.8 376.956 70.68C377.436 69.48 377.676 67.68 377.676 65.28V28.56C377.676 26.16 377.436 24.4 376.956 23.28C376.556 22.16 375.716 21.4 374.436 21C373.156 20.52 371.156 20.28 368.436 20.28C368.276 20.28 368.196 20.04 368.196 19.56C368.196 19.08 368.276 18.84 368.436 18.84H409.956C410.756 18.84 411.156 19.16 411.156 19.8L411.276 27.24C411.356 28.76 411.396 30.68 411.396 33C411.396 33.24 411.156 33.36 410.676 33.36C410.196 33.36 409.956 33.24 409.956 33C409.956 29.24 408.876 26.2 406.716 23.88C404.556 21.56 401.716 20.4 398.196 20.4H394.116C391.076 20.4 388.836 20.64 387.396 21.12C386.036 21.52 385.076 22.28 384.516 23.4C384.036 24.52 383.796 26.28 383.796 28.68V64.8C383.796 67.12 384.036 68.88 384.516 70.08C385.076 71.2 386.076 72 387.516 72.48C388.956 72.88 391.156 73.08 394.116 73.08H401.076C404.196 73.08 406.876 71.8 409.116 69.24C411.356 66.6 412.796 63.2 413.436 59.04C413.436 58.8 413.636 58.68 414.036 58.68C414.516 58.68 414.756 58.8 414.756 59.04C414.196 64.8 413.916 69.52 413.916 73.2C413.916 73.84 413.796 74.32 413.556 74.64C413.316 74.88 412.836 75 412.116 75H368.436ZM405.156 49.2C404.836 49.2 403.116 48.96 399.996 48.48C396.956 47.92 390.756 47.64 381.396 47.64V45.12C390.596 45.12 396.756 44.96 399.876 44.64C402.996 44.24 404.756 44.04 405.156 44.04C405.556 44.04 405.756 44.88 405.756 46.56C405.756 48.32 405.556 49.2 405.156 49.2Z" fill="white"/>
<path d="M311.873 75.48C309.633 75.48 307.113 75.36 304.313 75.12C303.353 75.04 302.153 74.96 300.713 74.88C299.273 74.8 297.633 74.76 295.793 74.76L288.713 74.88C287.433 74.96 285.673 75 283.433 75C283.273 75 283.193 74.76 283.193 74.28C283.193 73.8 283.273 73.56 283.433 73.56C286.233 73.56 288.273 73.36 289.553 72.96C290.833 72.56 291.713 71.8 292.193 70.68C292.673 69.48 292.913 67.68 292.913 65.28V28.56C292.913 26.16 292.673 24.4 292.193 23.28C291.713 22.16 290.833 21.4 289.553 21C288.273 20.52 286.273 20.28 283.553 20.28C283.393 20.28 283.313 20.04 283.313 19.56C283.313 19.08 283.393 18.84 283.553 18.84L288.833 18.96C291.713 19.12 294.033 19.2 295.793 19.2C298.273 19.2 300.753 19.08 303.233 18.84C306.433 18.68 308.833 18.6 310.433 18.6C317.153 18.6 322.953 19.8 327.833 22.2C332.713 24.6 336.433 27.92 338.993 32.16C341.553 36.4 342.833 41.2 342.833 46.56C342.833 52.08 341.513 57.04 338.873 61.44C336.233 65.84 332.553 69.28 327.833 71.76C323.193 74.24 317.873 75.48 311.873 75.48ZM310.433 74.04C318.273 74.04 324.393 71.8 328.793 67.32C333.273 62.76 335.513 56.28 335.513 47.88C335.513 39.8 333.353 33.16 329.033 27.96C324.713 22.68 318.193 20.04 309.473 20.04C305.553 20.04 302.793 20.68 301.193 21.96C299.673 23.24 298.913 25.52 298.913 28.8V63.96C298.913 67.64 299.673 70.24 301.193 71.76C302.793 73.28 305.873 74.04 310.433 74.04Z" fill="white"/>
<path d="M205.638 21.48L208.038 21.84V62.52C208.038 66.6 208.598 69.48 209.718 71.16C210.918 72.76 212.958 73.56 215.838 73.56C215.998 73.56 216.078 73.8 216.078 74.28C216.078 74.76 215.998 75 215.838 75C214.078 75 212.758 74.96 211.878 74.88L206.958 74.76L201.918 74.88C200.958 74.96 199.598 75 197.838 75C197.598 75 197.478 74.76 197.478 74.28C197.478 73.8 197.598 73.56 197.838 73.56C200.798 73.56 202.838 72.76 203.958 71.16C205.078 69.48 205.638 66.6 205.638 62.52V21.48ZM250.158 76.32C250.158 76.48 249.958 76.6 249.558 76.68C249.158 76.76 248.878 76.72 248.718 76.56L210.078 28.68C207.518 25.56 205.318 23.4 203.478 22.2C201.638 20.92 199.838 20.28 198.078 20.28C197.918 20.28 197.838 20.04 197.838 19.56C197.838 19.08 197.918 18.84 198.078 18.84L204.798 18.96L209.958 18.84C210.598 18.84 211.038 19 211.278 19.32C211.598 19.56 212.038 20.16 212.598 21.12C213.478 22.56 214.398 23.88 215.358 25.08L248.958 67.32L250.158 76.32ZM250.158 76.32L247.758 72.6V31.32C247.758 27.24 247.198 24.4 246.078 22.8C244.958 21.12 242.958 20.28 240.078 20.28C239.838 20.28 239.718 20.04 239.718 19.56C239.718 19.08 239.838 18.84 240.078 18.84L244.038 18.96C245.958 19.12 247.598 19.2 248.958 19.2C250.238 19.2 251.918 19.12 253.998 18.96L258.198 18.84C258.358 18.84 258.438 19.08 258.438 19.56C258.438 20.04 258.358 20.28 258.198 20.28C255.238 20.28 253.158 21.12 251.958 22.8C250.758 24.4 250.158 27.24 250.158 31.32V76.32Z" fill="white"/>
<path d="M136.329 45H158.169L159.009 46.92H134.409L136.329 45ZM180.129 73.56C180.449 73.56 180.609 73.8 180.609 74.28C180.609 74.76 180.449 75 180.129 75C178.689 75 176.369 74.92 173.169 74.76C170.129 74.6 167.889 74.52 166.449 74.52C165.329 74.52 163.729 74.6 161.649 74.76C159.729 74.92 158.249 75 157.209 75C156.889 75 156.729 74.76 156.729 74.28C156.729 73.8 156.889 73.56 157.209 73.56C159.369 73.56 160.969 73.28 162.009 72.72C163.129 72.16 163.689 71.2 163.689 69.84C163.689 68.56 163.209 66.92 162.249 64.92L143.289 23.88L145.929 22.92L131.049 60.24C129.769 63.6 129.129 66.08 129.129 67.68C129.129 69.76 129.849 71.28 131.289 72.24C132.809 73.12 135.049 73.56 138.009 73.56C138.409 73.56 138.609 73.8 138.609 74.28C138.609 74.76 138.409 75 138.009 75C136.809 75 135.169 74.92 133.089 74.76C130.849 74.6 128.769 74.52 126.849 74.52C124.849 74.52 122.489 74.6 119.769 74.76C117.369 74.92 115.449 75 114.009 75C113.689 75 113.529 74.76 113.529 74.28C113.529 73.8 113.689 73.56 114.009 73.56C116.489 73.56 118.449 73.24 119.889 72.6C121.329 71.88 122.649 70.52 123.849 68.52C125.049 66.52 126.529 63.4 128.289 59.16L145.449 17.04C145.609 16.72 145.849 16.56 146.169 16.56C146.489 16.56 146.689 16.72 146.769 17.04L166.089 58.56C168.169 63.04 169.809 66.28 171.009 68.28C172.289 70.28 173.569 71.68 174.849 72.48C176.209 73.2 177.969 73.56 180.129 73.56Z" fill="white"/>
<path d="M43.08 74.88C43 75.2 42.56 75.36 41.76 75.36C41.12 75.36 40.68 75.2 40.44 74.88L10.8 9.95999C9.44 6.83999 7.96 4.64 6.36 3.36C4.84 2.08 2.84 1.43999 0.36 1.43999C0.12 1.43999 0 1.2 0 0.719997C0 0.239999 0.12 0 0.36 0L5.52 0.119999C7.76 0.279997 9.44 0.359997 10.56 0.359997C12.88 0.359997 15.64 0.279997 18.84 0.119999L24 0C24.24 0 24.36 0.239999 24.36 0.719997C24.36 1.2 24.24 1.43999 24 1.43999C21.52 1.43999 19.64 1.72 18.36 2.28C17.08 2.84 16.44 3.83999 16.44 5.27999C16.44 6.07999 16.76 7.24 17.4 8.75999L45 68.28L40.92 73.44L57.12 33.6L58.8 36L43.08 74.88ZM113.28 0C113.52 0 113.64 0.239999 113.64 0.719997C113.64 1.2 113.52 1.43999 113.28 1.43999C110.56 1.43999 108.28 2.04 106.44 3.23999C104.68 4.35999 103.12 6.52 101.76 9.72L75.36 74.88C75.28 75.2 74.84 75.36 74.04 75.36C73.4 75.36 72.96 75.2 72.72 74.88L43.08 9.95999C41.72 6.83999 40.24 4.64 38.64 3.36C37.12 2.08 35.12 1.43999 32.64 1.43999C32.4 1.43999 32.28 1.2 32.28 0.719997C32.28 0.239999 32.4 0 32.64 0L37.8 0.119999C40.04 0.279997 41.72 0.359997 42.84 0.359997C44.52 0.359997 46.48 0.279997 48.72 0.119999L52.08 0C52.32 0 52.44 0.239999 52.44 0.719997C52.44 1.2 52.32 1.43999 52.08 1.43999C50.48 1.43999 49.36 1.56 48.72 1.8C48.08 2.04 47.76 2.51999 47.76 3.23999C47.76 3.95999 48.4 5.79999 49.68 8.75999L77.28 68.28L73.2 73.44L99.36 9C99.92 7.8 100.2 6.64 100.2 5.51999C100.2 4.08 99.44 3.04 97.92 2.4C96.48 1.76 94.04 1.43999 90.6 1.43999C90.36 1.43999 90.24 1.2 90.24 0.719997C90.24 0.239999 90.36 0 90.6 0L95.4 0.119999C98.12 0.279997 100.52 0.359997 102.6 0.359997C104.28 0.359997 106.16 0.279997 108.24 0.119999L113.28 0ZM67.56 9C68.28 7.32 68.64 5.92 68.64 4.8C68.64 3.6 68.16 2.76 67.2 2.28C66.32 1.72 64.88 1.43999 62.88 1.43999C62.72 1.43999 62.64 1.2 62.64 0.719997C62.64 0.239999 62.72 0 62.88 0L66.24 0.119999C67.84 0.279997 69.36 0.359997 70.8 0.359997C72.4 0.359997 74.24 0.279997 76.32 0.119999L81.48 0C81.64 0 81.72 0.239999 81.72 0.719997C81.72 1.2 81.64 1.43999 81.48 1.43999C78.76 1.43999 76.48 2.04 74.64 3.23999C72.8 4.35999 71.24 6.52 69.96 9.72L59.28 36L57.6 33.6L67.56 9Z" fill="white"/>
<path opacity="0.6" d="M741.264 161.495C739.878 161.495 738.652 161.27 737.585 160.819C736.529 160.368 735.665 159.746 734.994 158.954C734.334 158.162 733.834 157.337 733.493 156.479C733.163 155.61 732.998 155.176 732.998 155.176L735.621 154.103C735.621 154.103 735.764 154.466 736.05 155.192C736.347 155.907 736.738 156.551 737.222 157.123C737.706 157.695 738.305 158.135 739.02 158.443C739.735 158.751 740.544 158.905 741.446 158.905C742.909 158.905 744.086 158.525 744.977 157.766C745.879 156.996 746.33 155.984 746.33 154.73C746.33 153.729 745.978 152.866 745.274 152.14C744.581 151.403 743.129 150.666 740.918 149.929C738.19 149.038 736.342 148.048 735.374 146.959C734.406 145.859 733.922 144.555 733.922 143.048C733.922 141.31 734.598 139.847 735.951 138.659C737.304 137.471 739.042 136.877 741.165 136.877C742.331 136.877 743.365 137.048 744.267 137.389C745.169 137.73 745.939 138.219 746.577 138.857C747.215 139.484 747.683 140.106 747.98 140.722C748.288 141.338 748.442 141.646 748.442 141.646L745.884 142.735C745.884 142.735 745.785 142.526 745.587 142.108C745.4 141.69 745.087 141.261 744.647 140.821C744.207 140.381 743.701 140.051 743.129 139.831C742.557 139.6 741.886 139.484 741.116 139.484C739.818 139.484 738.756 139.803 737.931 140.441C737.117 141.068 736.71 141.899 736.71 142.933C736.71 143.758 737.018 144.506 737.634 145.177C738.25 145.837 739.873 146.607 742.502 147.487C744.746 148.224 746.401 149.181 747.468 150.358C748.535 151.535 749.069 152.965 749.069 154.648C749.069 156.782 748.332 158.459 746.858 159.68C745.395 160.89 743.53 161.495 741.264 161.495Z" fill="white"/>
<path opacity="0.6" d="M692.792 161V137.372H706.025V139.996H695.564V158.377H706.223V161H692.792ZM694.277 150.457V147.866H705.448V150.457H694.277Z" fill="white"/>
<path opacity="0.6" d="M649.664 161V137.372H657.634C659.691 137.372 661.429 138.027 662.848 139.336C664.267 140.634 664.976 142.3 664.976 144.335C664.976 146.436 664.261 148.152 662.831 149.483C661.412 150.814 659.504 151.48 657.106 151.48H651.116V148.873H657.485C658.805 148.873 659.916 148.455 660.818 147.619C661.731 146.783 662.188 145.688 662.188 144.335C662.188 143.103 661.748 142.075 660.868 141.25C659.999 140.414 658.926 139.996 657.65 139.996H652.42V161H649.664ZM662.716 161L655.637 150.16L658.624 149.945L666.065 161H662.716Z" fill="white"/>
<path opacity="0.6" d="M612.386 161.495C609.768 161.495 607.645 160.643 606.017 158.938C604.4 157.233 603.592 155 603.592 152.239V137.372H606.347V152.272C606.347 154.296 606.886 155.902 607.964 157.09C609.042 158.278 610.522 158.872 612.403 158.872C614.295 158.872 615.78 158.283 616.858 157.106C617.936 155.929 618.475 154.318 618.475 152.272V137.372H621.23V152.239C621.23 155.044 620.427 157.288 618.821 158.971C617.226 160.654 615.081 161.495 612.386 161.495Z" fill="white"/>
<path opacity="0.6" d="M567.455 161V138.659H570.227V161H567.455ZM560.707 139.996V137.372H576.943V139.996H560.707Z" fill="white"/>
<path opacity="0.6" d="M515.478 161V137.372H518.761L530.839 156.215H530.922L530.806 151.81V137.372H533.562V161H530.79L518.2 141.332H518.118L518.233 145.738V161H515.478Z" fill="white"/>
<path opacity="0.6" d="M473.639 161V137.372H486.872V139.996H476.411V158.377H487.07V161H473.639ZM475.124 150.457V147.866H486.294V150.457H475.124Z" fill="white"/>
<path opacity="0.6" d="M435.365 161L426.851 137.372H429.887L436.008 154.813L436.734 156.941H436.817L437.559 154.862L443.862 137.372H446.849L438.071 161H435.365Z" fill="white"/>
<path opacity="0.6" d="M383.193 161V137.372H390.387C393.995 137.372 396.888 138.45 399.066 140.606C401.244 142.751 402.333 145.595 402.333 149.137C402.333 152.712 401.244 155.583 399.066 157.75C396.888 159.917 393.995 161 390.387 161H383.193ZM385.948 158.377H390.387C393.236 158.377 395.469 157.563 397.086 155.935C398.714 154.307 399.528 152.046 399.528 149.153C399.528 146.282 398.714 144.038 397.086 142.421C395.458 140.804 393.225 139.996 390.387 139.996H385.948V158.377Z" fill="white"/>
<path opacity="0.6" d="M335.246 161L344.288 137.372H347.39L356.382 161H353.346L346.697 142.999L345.872 140.507H345.773L344.948 142.999L338.232 161H335.246ZM339.09 154.483L340.031 151.876H350.987L351.944 154.483H339.09Z" fill="white"/>
<path opacity="0.6" d="M265.668 161V137.372H268.423V158.377H278.884V161H265.668Z" fill="white"/>
<path opacity="0.6" d="M223.829 161V137.372H237.062V139.996H226.601V158.377H237.26V161H223.829ZM225.314 150.457V147.866H236.484V150.457H225.314Z" fill="white"/>
<path opacity="0.6" d="M185.555 161L177.041 137.372H180.077L186.198 154.813L186.924 156.941H187.007L187.749 154.862L194.052 137.372H197.039L188.261 161H185.555Z" fill="white"/>
<path opacity="0.6" d="M134.139 161L143.181 137.372H146.283L155.276 161H152.24L145.59 142.999L144.765 140.507H144.666L143.841 142.999L137.126 161H134.139ZM137.984 154.483L138.924 151.876H149.88L150.837 154.483H137.984Z" fill="white"/>
<path opacity="0.6" d="M93.1552 161V137.372H101.125C103.182 137.372 104.92 138.027 106.339 139.336C107.758 140.634 108.467 142.3 108.467 144.335C108.467 146.436 107.752 148.152 106.322 149.483C104.903 150.814 102.995 151.48 100.597 151.48H94.6072V148.873H100.976C102.296 148.873 103.407 148.455 104.309 147.619C105.222 146.783 105.679 145.688 105.679 144.335C105.679 143.103 105.239 142.075 104.359 141.25C103.49 140.414 102.417 139.996 101.141 139.996H95.9107V161H93.1552ZM106.207 161L99.1282 150.16L102.115 149.945L109.556 161H106.207Z" fill="white"/>
<path opacity="0.6" d="M56.5239 161V138.659H59.2959V161H56.5239ZM49.7754 139.996V137.372H66.0114V139.996H49.7754Z" fill="white"/>
</svg>
